<svg width="289" height="137" viewBox="0 0 289 137" fill="none" xmlns="http://www.w3.org/2000/svg">
<path d="M3.072 63.52H29.248V71.456H14.592V78.688H26.688V85.664H14.592V100H3.072V63.52ZM38.2575 66.912C36.8068 66.912 35.5482 66.4213 34.4815 65.44C33.4575 64.4587 32.9455 63.2853 32.9455 61.92C32.9455 60.5547 33.4575 59.3813 34.4815 58.4C35.5482 57.4187 36.8068 56.928 38.2575 56.928C39.7082 56.928 40.9455 57.4187 41.9695 58.4C42.9935 59.3813 43.5055 60.5547 43.5055 61.92C43.5055 63.2853 42.9935 64.4587 41.9695 65.44C40.9455 66.4213 39.7082 66.912 38.2575 66.912ZM32.7535 70.56H43.6975V100H32.7535V70.56ZM62.692 87.904C62.692 88.672 62.7133 89.4827 62.756 90.336C62.7987 91.1467 62.9267 91.6587 63.14 91.872C63.4387 92.1707 64.484 92.32 66.276 92.32L68.452 92.256C68.836 94.304 69.028 96.672 69.028 99.36C68.2173 99.6587 67.0227 99.936 65.444 100.192C63.908 100.448 62.436 100.576 61.028 100.576C58.084 100.576 55.8013 99.936 54.18 98.656C52.6013 97.3333 51.812 95.3067 51.812 92.576V76.832H47.012V71.008L51.812 70.56L54.692 63.52L62.692 63.072V70.56H69.476V76.832H62.692V87.904ZM97.67 63.328C101.126 63.328 104.049 63.648 106.438 64.288C108.827 64.928 110.726 66.1653 112.134 68C113.585 69.792 114.31 72.3733 114.31 75.744C114.31 77.2373 114.075 78.7733 113.606 80.352C113.179 81.888 112.625 83.232 111.942 84.384C111.302 85.536 110.726 86.2827 110.214 86.624C109.617 87.0507 108.294 87.392 106.246 87.648C104.198 87.8613 101.787 87.968 99.014 87.968C98.0327 87.968 96.518 87.9253 94.47 87.84V100H82.95V63.52C87.43 63.392 92.3367 63.328 97.67 63.328ZM102.47 79.776C102.897 79.2213 103.11 78.112 103.11 76.448C103.11 74.272 102.641 72.736 101.702 71.84C100.806 70.944 99.2273 70.496 96.966 70.496C96.198 70.496 95.366 70.56 94.47 70.688V80.416C94.8967 80.4587 95.7287 80.48 96.966 80.48C100.251 80.48 102.086 80.2453 102.47 79.776ZM118.004 61.6L128.948 61.152V100H118.004V61.6ZM151.91 100L150.886 95.968C148.923 99.168 146.193 100.768 142.694 100.768C139.835 100.768 137.489 99.9787 135.654 98.4C133.862 96.7787 132.966 94.5173 132.966 91.616C132.966 89.824 133.478 88.2667 134.502 86.944C135.569 85.5787 137.019 84.6187 138.854 84.064C141.243 83.3813 144.934 82.9973 149.926 82.912C149.926 80.096 149.798 78.6027 149.542 78.432C149.329 78.2613 148.646 78.176 147.494 78.176C146.769 78.176 145.766 78.2187 144.486 78.304C142.438 78.3893 139.665 78.624 136.166 79.008C135.825 76.704 135.569 74.2293 135.398 71.584C137.659 71.1147 140.027 70.7307 142.502 70.432C144.977 70.0907 147.195 69.92 149.158 69.92C152.571 69.92 155.131 70.496 156.838 71.648C158.545 72.7573 159.654 74.2293 160.166 76.064C160.678 77.8987 160.913 80.224 160.87 83.04L160.806 92.448L160.998 100H151.91ZM146.406 93.6C147.515 93.6 148.689 93.3867 149.926 92.96V88.224H149.414C146.257 88.224 144.507 88.3947 144.166 88.736C143.953 88.9493 143.782 89.2693 143.654 89.696C143.569 90.1227 143.526 90.528 143.526 90.912C143.526 91.936 143.761 92.64 144.23 93.024C144.699 93.408 145.425 93.6 146.406 93.6ZM194.292 72.416C194.676 72.8853 194.953 74.0587 195.124 75.936C195.337 77.8133 195.444 80.672 195.444 84.512V100H184.5V84.64V82.016C184.5 80.6507 184.393 79.7973 184.18 79.456C183.838 79.0293 183.049 78.816 181.812 78.816C181.214 78.816 180.766 78.8373 180.468 78.88C179.273 78.9227 178.036 79.2 176.756 79.712V100H165.812V70.56H174.708L175.924 75.488C178.996 71.776 182.665 69.92 186.932 69.92C188.468 69.92 189.897 70.1333 191.22 70.56C192.585 70.9867 193.609 71.6053 194.292 72.416ZM228.979 72.416C229.363 72.8853 229.64 74.0587 229.811 75.936C230.024 77.8133 230.131 80.672 230.131 84.512V100H219.187V84.64V82.016C219.187 80.6507 219.08 79.7973 218.867 79.456C218.526 79.0293 217.736 78.816 216.499 78.816C215.902 78.816 215.454 78.8373 215.155 78.88C213.96 78.9227 212.723 79.2 211.443 79.712V100H200.499V70.56H209.395L210.611 75.488C213.683 71.776 217.352 69.92 221.619 69.92C223.155 69.92 224.584 70.1333 225.907 70.56C227.272 70.9867 228.296 71.6053 228.979 72.416ZM253.043 92.32C254.109 92.32 256.093 92.2133 258.995 92C259.379 92 260.083 91.9573 261.107 91.872L262.067 98.464C258.781 100 254.515 100.768 249.267 100.768C244.36 100.768 240.584 99.5307 237.939 97.056C235.336 94.5813 234.035 90.848 234.035 85.856C234.035 83.296 234.355 80.8213 234.995 78.432C235.677 76.0427 236.445 74.3787 237.299 73.44C238.195 72.5013 239.859 71.6907 242.291 71.008C244.723 70.3253 247.133 69.984 249.523 69.984C253.363 69.984 256.243 70.6667 258.163 72.032C260.083 73.3973 261.341 75.296 261.939 77.728C262.536 80.1173 262.835 83.3387 262.835 87.392C259.933 87.5627 257.096 87.648 254.323 87.648H245.235C245.235 89.0133 245.512 90.0373 246.067 90.72C246.664 91.4027 247.496 91.8507 248.562 92.064C249.629 92.2347 251.123 92.32 253.043 92.32ZM245.875 77.6C245.619 77.728 245.427 78.2827 245.299 79.264C245.171 80.2453 245.085 81.3547 245.043 82.592H248.371C250.376 82.592 251.827 82.5707 252.723 82.528C252.723 80.48 252.424 79.0293 251.827 78.176C251.272 77.3227 250.291 76.896 248.883 76.896C247.731 76.896 246.728 77.1307 245.875 77.6ZM284.927 69.92C285.481 69.92 286.057 69.984 286.655 70.112C287.295 70.24 287.764 70.3893 288.063 70.56C288.063 71.4987 287.956 73.056 287.743 75.232C287.529 77.3653 287.337 78.88 287.167 79.776C286.74 79.7333 285.951 79.712 284.799 79.712C282.111 79.712 279.721 79.8613 277.631 80.16V100H266.687V70.56H275.839L277.119 75.296H277.183C278.42 73.6747 279.743 72.3733 281.151 71.392C282.559 70.4107 283.817 69.92 284.927 69.92Z" fill="#11120D"/>
<path d="M189.343 7.14951C184.652 8.05801 178.819 15.4445 175.776 24.2925C175.227 25.7935 174.762 27.097 174.72 27.176C174.677 27.2155 172.733 26.9785 170.409 26.623L166.224 25.991L165.717 23.3445C165.464 21.9225 165.125 19.908 164.956 18.8415C164.618 16.6295 163.435 14.773 161.406 13.509C160.18 12.719 159.546 12.6005 157.729 12.7585C156.081 12.9165 155.404 12.8375 155.024 12.403C153.629 10.823 150.248 10.0725 147.881 10.823C146.36 11.297 146.148 11.297 145.514 10.6255C143.824 8.88751 138.963 8.72951 136.089 10.3095C134.779 11.0205 134.441 11.06 132.793 10.6255C128.566 9.55901 124.593 12.245 122.902 17.38C122.226 19.434 121.804 20.145 120.789 20.698C119.225 21.567 118 23.3445 117.662 25.3195C117.408 26.6625 117.197 26.86 115.929 27.097C115.126 27.2155 114.407 27.2945 114.323 27.2155C114.28 27.1365 113.52 25.2405 112.717 22.989C110.096 16.037 106.25 10.586 102.277 8.21601C100.798 7.34702 99.868 7.11002 98.0928 7.11002C95.895 7.11002 95.6837 7.18901 93.6972 9.04551C92.3025 10.349 91.2036 11.0205 90.2315 11.1785C87.9914 11.4945 86.7235 12.5215 85.4978 14.852C84.6947 16.353 84.1453 16.985 83.5536 16.985C82.2011 16.985 80.3414 18.2095 79.6652 19.5525C78.6086 21.6065 78.0168 25.991 78.2704 30.02C78.4818 33.6145 78.4395 33.8515 77.5519 34.207C76.8334 34.4835 76.6221 34.9575 76.5376 36.6165C76.3262 40.2505 77.8901 43.6475 79.8765 43.924C80.5528 44.003 81.0177 44.6745 81.7362 46.4125C84.9483 54.431 89.0903 58.7365 92.4715 57.591C93.2746 57.3145 93.824 57.512 95.3878 58.6575C97.797 60.3955 99.4876 60.7115 101.643 59.803C102.531 59.4475 103.376 59.1315 103.503 59.171C103.63 59.2105 104.559 59.487 105.531 59.8425C106.715 60.2375 107.941 60.356 108.87 60.198C110.519 59.9215 113.351 57.749 114.28 56.1295C116.309 52.377 117.197 46.3335 116.605 39.974C116.394 37.683 116.225 35.7475 116.309 35.708C116.351 35.6685 116.774 35.55 117.281 35.392C118.084 35.155 118.253 35.392 118.93 37.7225C119.31 39.1445 120.198 41.08 120.874 42.028C122.311 44.0425 127.214 48.4665 129.749 50.0465L131.482 51.113L131.356 60.514C131.229 66.4785 131.356 70.0335 131.609 70.2705C131.863 70.5075 133.934 70.9815 136.258 71.337C141.161 72.0875 154.982 71.89 159.715 71.021L162.463 70.5075L162.674 60.2375L162.885 49.9675L164.069 47.874C165.633 45.0695 166.901 40.369 166.901 37.2485C166.901 34.4045 166.901 34.444 170.747 35.1945L172.902 35.629L172.649 37.604C172.184 40.7245 172.31 48.6245 172.86 50.955C174.339 57.354 178.481 61.1855 182.792 60.0795C183.68 59.8425 184.694 59.487 184.99 59.329C185.328 59.092 186.173 59.2895 187.23 59.7635C189.343 60.751 191.119 60.435 193.57 58.7365C195.176 57.591 195.683 57.433 197.416 57.591C199.233 57.749 199.529 57.6305 201.262 56.1295C203.249 54.3915 205.531 50.718 207.222 46.531C208.067 44.4375 208.405 44.003 209.504 43.766C211.321 43.3315 212.632 40.3295 212.462 37.0115C212.336 34.9575 212.209 34.4835 211.448 34.207C210.645 33.8515 210.603 33.6145 210.772 29.7435C211.152 21.7645 209.166 16.985 205.446 16.985C204.897 16.985 204.348 16.353 203.671 14.9705C202.488 12.64 200.924 11.455 198.642 11.1785C197.501 11.0205 196.824 10.665 196.233 9.83551C194.711 7.66301 192.048 6.59651 189.343 7.14951ZM101.939 9.32201C102.784 9.83551 103.503 10.349 103.503 10.4675C103.503 10.5465 102.827 10.507 102.023 10.3885C100.713 10.191 100.375 10.349 99.1494 11.534C97.5011 13.193 96.7826 15.168 96.3177 19.513C94.6693 34.602 103.376 56.88 110.941 56.88C111.914 56.88 111.998 56.959 111.491 57.512C110.73 58.381 108.786 59.25 107.687 59.25C107.138 59.25 105.912 58.8945 104.898 58.4205L103.08 57.591L101.854 58.4205C101.178 58.8945 100.206 59.25 99.6566 59.25C98.4309 59.25 95.3033 57.512 94.4157 56.406C93.824 55.537 93.7395 55.537 92.5561 56.2085C90.95 57.0775 89.8088 56.6825 87.7378 54.5495C84.9061 51.6265 82.1166 45.3065 80.426 37.92C79.4539 33.733 79.3271 23.542 80.1724 21.2115C80.9754 19.197 82.2011 18.17 83.934 18.17C84.9061 18.17 85.4133 17.9725 85.5823 17.459C86.6812 13.983 88.9635 11.9685 91.2881 12.403C92.3025 12.6005 92.5983 12.4425 93.1055 11.534C93.7818 10.349 95.726 8.53201 96.7403 8.17651C97.8392 7.78151 100.291 8.29501 101.939 9.32201ZM193.781 9.00601C194.288 9.36151 195.134 10.349 195.683 11.139C196.486 12.3635 196.824 12.561 197.796 12.3635C199.741 12.008 201.389 13.193 202.699 15.8C203.756 17.8935 204.009 18.17 205.151 18.17C208.067 18.2095 209.25 20.5005 209.504 26.8995C209.927 36.735 206.123 49.533 201.304 54.51C199.191 56.6825 198.05 57.0775 196.444 56.2085C195.26 55.537 195.176 55.537 194.584 56.406C193.697 57.5515 190.527 59.25 189.217 59.25C188.625 59.25 187.653 58.8945 187.019 58.4205L185.92 57.591L184.102 58.4205C183.088 58.8945 181.862 59.25 181.313 59.25C180.214 59.25 178.27 58.381 177.509 57.512C177.002 56.959 177.086 56.88 178.059 56.88C184.145 56.88 191.076 42.976 192.725 27.5315C193.781 17.301 191.203 9.75651 186.85 10.428C185.666 10.586 185.497 10.5465 185.92 10.0725C186.173 9.79601 187.188 9.16401 188.16 8.69001C190.146 7.78151 192.133 7.90001 193.781 9.00601ZM143.612 11.455C144.035 11.6525 144.5 12.1265 144.669 12.4425C144.838 12.956 144.669 12.9165 143.824 12.2845C143.105 11.7315 142.133 11.4945 141.161 11.4945C139.809 11.5735 139.766 11.5735 140.865 11.7315C141.541 11.85 142.344 12.166 142.683 12.482C143.19 12.956 143.105 12.9955 142.006 12.798C140.443 12.482 140.273 12.9165 141.71 13.43C142.598 13.746 142.767 14.1015 143.021 16.985C143.19 18.7625 143.19 21.883 143.021 23.937C142.725 27.6105 142.725 27.65 141.626 27.65C140.485 27.6895 140.527 27.6895 141.88 28.2425C142.598 28.5585 143.232 28.835 143.232 28.914C143.232 28.993 142.133 29.0325 140.823 29.0325H138.372L137.991 30.889C137.569 32.864 138.118 34.76 139.048 34.76C139.386 34.76 139.386 34.602 139.048 34.207C138.752 33.891 138.583 32.785 138.667 31.7185L138.794 29.8225L140.569 29.704L142.344 29.5855L141.922 30.889C141.288 32.9825 141.415 34.365 142.302 34.4045C142.894 34.4045 142.894 34.4835 142.175 34.76C141.415 35.076 141.415 35.1155 142.091 35.1155C143.612 35.1945 142.302 35.945 140.696 35.945C139.428 35.945 138.879 35.708 137.991 34.76C136.935 33.575 136.935 33.4565 137.146 28.7165C137.315 25.122 137.146 22.673 136.554 18.96C136.131 16.2345 135.667 13.7855 135.582 13.4695C135.498 13.1535 136.047 12.482 136.85 11.9685C138.414 10.981 142.133 10.7045 143.612 11.455ZM105.151 14.1015C107.264 16.1555 109.293 19.7105 110.941 24.174C112.04 27.255 112.209 28.203 111.533 27.966C111.28 27.887 110.519 26.228 109.8 24.2925C107.349 17.4985 104.179 13.035 101.812 13.035C100.84 13.035 100.46 13.351 99.6989 14.773C99.234 15.7605 98.6423 17.6565 98.4732 19.039C98.1351 21.3695 98.0928 21.409 98.0506 19.7105C98.0083 17.459 99.0649 14.0225 100.164 12.9955C101.559 11.692 103.038 12.0475 105.151 14.1015ZM133.088 12.64C133.638 12.956 133.638 13.035 133.131 13.035C132.623 13.035 132.623 13.1535 133.004 13.509C133.934 14.378 133.511 14.931 131.778 15.2075C130.764 15.3655 129.454 15.9975 128.566 16.7085L127.044 17.9725L127.256 16.7085C127.509 15.01 126.875 15.4445 126.284 17.38C125.988 18.249 125.523 18.96 125.185 18.96C123.325 18.96 126.284 13.5485 128.651 12.64C129.834 12.166 132.328 12.166 133.088 12.64ZM152.361 12.877C153.164 13.2325 153.798 13.7065 153.798 13.904C153.798 14.1015 153.587 14.141 153.376 14.0225C152.742 13.667 150.417 13.0745 150.417 13.272C150.417 13.351 151.093 13.667 151.939 14.0225C153.545 14.6545 153.587 15.4445 151.981 15.1285C151.22 15.01 151.262 15.089 152.277 15.6025C152.953 15.9975 153.291 16.3925 153.08 16.5505C152.869 16.669 152.446 18.2095 152.15 19.9475C151.136 26.2675 150.755 27.65 150.121 27.65C149.656 27.65 149.783 27.887 150.459 28.4795C151.431 29.23 151.431 29.2695 150.544 28.8745C149.191 28.2425 147.205 28.361 146.613 29.0325C145.852 29.862 145.514 33.3775 146.148 33.7725C146.486 33.97 146.571 33.733 146.402 33.0615C146.233 32.548 146.402 31.442 146.782 30.652C147.289 29.467 147.628 29.23 148.642 29.23C149.318 29.23 149.952 29.309 150.079 29.4275C150.206 29.546 150.037 30.494 149.783 31.521C149.445 32.706 149.403 33.4565 149.656 33.6145C149.91 33.7725 149.868 33.97 149.53 34.0885C149.149 34.207 149.234 34.3255 149.783 34.3255C150.544 34.365 150.544 34.4045 149.91 34.997C149.065 35.8265 146.613 35.471 145.599 34.4045C144.965 33.733 144.923 33.18 145.303 28.993C145.514 26.386 145.852 21.9225 146.022 19.039C146.275 14.062 146.36 13.746 147.374 13.035C148.642 12.087 150.417 12.0475 152.361 12.877ZM189.259 13.351C190.315 14.7335 190.992 17.3405 190.907 19.75C190.907 21.409 190.865 21.33 190.527 19.0785C190.358 17.7355 189.808 15.8 189.343 14.8125C188.625 13.272 188.329 13.035 187.272 13.035C184.821 13.035 181.651 17.4985 179.157 24.3715C178.481 26.2675 177.72 27.887 177.467 27.966C176.791 28.203 176.96 27.1365 178.143 24.016C181.736 14.6545 186.638 9.95401 189.259 13.351ZM160.434 15.01C161.152 15.405 161.998 16.1555 162.294 16.669L162.801 17.5775L161.786 16.7085C160.814 15.879 158.448 15.089 158.448 15.563C158.448 15.721 158.955 15.9975 159.631 16.2345C160.476 16.5505 160.603 16.748 160.138 16.9455C159.8 17.064 159.462 17.7355 159.42 18.486C159.42 19.197 158.87 20.382 158.278 21.1325C157.644 21.9225 157.349 22.5545 157.602 22.7125C157.814 22.831 158.025 23.147 158.025 23.384C158.025 23.621 157.644 23.5025 157.18 23.1075C156.165 22.2385 155.193 22.5545 154.644 23.8975C154.094 25.2405 154.094 27.255 154.644 27.255C154.855 27.255 154.939 26.9785 154.813 26.6625C154.475 25.912 155.404 23.305 155.996 23.305C156.419 23.305 156.334 24.1345 155.658 26.6625C155.404 27.65 155.447 27.729 156.377 27.4525C157.349 27.2155 159.377 25.438 160.476 23.858C160.772 23.463 160.688 23.7395 160.307 24.49C159.124 26.86 157.644 28.045 155.869 28.045C153.714 28.045 153.333 27.334 154.01 24.5295C154.306 23.305 154.897 20.8955 155.278 19.197C155.785 17.1035 156.377 15.7605 157.01 15.1285C158.194 14.0225 158.701 13.983 160.434 15.01ZM131.736 16.7875C132.539 18.4465 132.328 19.2365 130.806 20.3425C128.82 21.725 127.425 21.567 127.256 19.908C127.129 18.881 127.425 18.4465 128.904 17.222C129.919 16.432 130.848 15.8 130.975 15.8C131.144 15.8 131.482 16.2345 131.736 16.7875ZM133.807 16.985C134.906 18.9205 133.427 22.6335 130.764 24.806C128.481 26.702 126.875 27.334 124.762 27.176C123.198 27.0575 123.029 27.1365 123.663 27.5315C124.044 27.808 124.678 28.045 125.016 28.0845C125.523 28.0845 125.438 28.203 124.847 28.44C124.128 28.7165 124.255 28.7955 125.396 28.7955C126.622 28.835 126.875 29.0325 127.636 30.6125C128.524 32.469 128.397 33.97 127.34 34.7995C127.002 35.0365 126.749 35.4315 126.749 35.629C126.749 36.261 129.242 34.365 129.538 33.4565C129.834 32.6665 129.919 32.7455 130.172 33.97L130.426 35.3525L130.764 34.0095L131.102 32.706L131.651 33.6145C131.947 34.128 132.201 34.365 132.243 34.0885C132.243 33.575 136.047 33.496 136.047 34.0095C136.047 34.207 136.639 34.9575 137.357 35.708C138.921 37.4065 140.95 37.999 143.105 37.446C144.585 37.051 144.754 37.13 145.81 38.2755C146.444 38.9865 147.12 40.132 147.374 40.8035C147.754 41.9885 147.797 42.028 147.839 41.0405C147.881 40.4875 147.459 39.263 146.951 38.2755L145.979 36.5375H148.388C150.417 36.5375 150.967 36.3795 151.981 35.471L153.164 34.4045L156.546 35.5105C163.223 37.7225 162.97 37.4065 160.941 41.1985C158.448 45.9385 154.559 48.506 149.614 48.7035C147.839 48.7825 146.825 49.0195 146.148 49.5725L145.219 50.3625L146.064 49.1775C146.571 48.506 147.12 47.558 147.247 47.0445L147.585 46.057L146.233 47.1235C142.006 50.4415 131.863 47.9925 124.551 41.87C121.846 39.6185 120.789 37.5645 120.028 32.9035C119.394 29.151 119.394 24.7665 120.028 25.122C120.324 25.28 120.409 25.122 120.24 24.648C119.902 23.6605 120.24 23.2655 122.945 21.3695C125.481 19.592 126.326 19.355 126.326 20.461C126.326 20.8955 126.706 21.5275 127.171 21.9225C127.932 22.5545 128.228 22.594 129.665 22.1595C132.666 21.33 133.934 18.6835 132.412 16.6295C131.736 15.7605 131.778 15.721 132.497 15.879C132.919 15.958 133.511 16.432 133.807 16.985ZM134.652 25.201C133.469 25.3985 133.384 25.0825 134.187 23.621L134.948 22.3175L135.202 23.7C135.371 24.8455 135.286 25.122 134.652 25.201ZM107.349 26.3465C107.814 26.939 107.814 26.9785 107.307 26.5835C104.855 24.5295 105.278 33.6145 107.856 38.2755C108.997 40.369 109.547 40.6455 110.181 39.421C110.477 38.8285 110.646 38.71 110.646 39.1445C110.688 39.4605 110.434 40.0925 110.096 40.4875C109.547 41.1985 109.462 41.1985 108.448 40.5665C105.954 39.0655 104.137 34.128 104.433 29.5855C104.644 26.1095 105.954 24.648 107.349 26.3465ZM134.821 27.729C134.821 28.8745 134.906 30.2175 134.948 30.6915C135.033 31.442 134.864 31.6 133.934 31.6C133.3 31.6 132.412 31.205 131.863 30.652C130.806 29.5855 130.426 27.255 131.313 26.9785C131.651 26.86 131.82 27.255 131.82 28.1635C131.82 28.9535 132.116 29.7435 132.539 30.0595C133.173 30.573 133.173 30.5335 132.708 29.704C132.116 28.7165 132.454 26.465 133.257 25.991C134.399 25.28 134.779 25.7145 134.821 27.729ZM184.102 26.86C185.54 29.546 184.102 37.051 181.651 39.6975C180.172 41.2775 179.369 41.4355 178.735 40.3295C178.016 39.0655 178.27 38.552 179.073 39.5L179.876 40.4085L180.594 39.4605C182.496 36.893 184.145 28.0055 182.961 26.6625C182.539 26.1885 182.285 26.149 181.736 26.544C181.144 27.018 181.102 26.9785 181.651 26.3465C182.412 25.438 183.426 25.6355 184.102 26.86ZM167.957 27.413C170.07 27.729 173.917 28.361 176.537 28.835C181.862 29.862 182.158 30.099 181.313 33.022C180.51 35.7475 180.425 35.787 177.171 35.234C167.619 33.5355 162.463 32.785 159.166 32.548C155.447 32.2715 153.629 31.6 156.63 31.6C158.912 31.6 169.225 33.0615 174.72 34.1675C178.228 34.839 179.496 34.9575 179.834 34.6415C180.468 34.049 181.059 32.232 180.552 32.5085C180.341 32.627 177.636 32.232 174.508 31.6C171.381 30.968 166.985 30.257 164.787 30.02C162.59 29.783 160.138 29.5065 159.335 29.388L157.898 29.1905L159.251 28.4005C159.969 28.0055 160.561 27.492 160.561 27.255C160.561 26.702 163.435 26.781 167.957 27.413ZM117.704 29.5065L117.662 30.9285L113.224 31.837C110.815 32.311 108.659 32.627 108.49 32.548C107.983 32.232 108.067 32.706 108.828 34.0095C109.251 34.839 109.673 35.1155 110.181 34.997C111.449 34.602 117.07 33.575 117.746 33.575C119.183 33.575 117.788 34.0885 114.407 34.7995C109.504 35.8265 108.786 35.787 108.236 34.444C107.433 32.469 107.264 31.679 107.518 30.6915C107.772 29.8225 108.194 29.625 111.871 28.914C117.831 27.7685 117.746 27.7685 117.704 29.5065ZM78.7354 35.629C79.4116 37.5645 79.4116 38.315 78.7776 38.315C78.2704 38.315 78.1859 38.5915 78.3972 39.3815C78.7776 40.8035 79.4116 41.9885 80.0033 42.344C80.2992 42.5415 80.2146 42.66 79.792 42.66C78.6086 42.66 77.0447 37.92 77.5942 36.024C77.8478 35.076 78.4818 34.8785 78.7354 35.629ZM211.448 36.1425C211.955 38.0385 210.391 42.66 209.208 42.66C208.743 42.66 208.701 42.5415 209.039 42.344C209.546 42.028 210.856 39.4605 210.856 38.71C210.856 38.5125 210.603 38.315 210.265 38.315C209.757 38.315 209.715 37.209 210.222 35.629C210.518 34.839 211.152 35.076 211.448 36.1425ZM114.238 37.4065C115.506 45.3855 114.28 53.7595 111.744 54.668C109.758 55.379 107.391 53.9175 105.447 50.7575C103.883 48.3085 104.094 48.032 105.785 50.3625C107.349 52.535 108.786 53.8385 109.969 54.2335C111.153 54.6285 112.632 52.9695 113.181 50.5995C113.689 48.3085 113.773 41.5935 113.266 38.394C113.097 37.2485 113.055 36.261 113.139 36.1425C113.689 35.6685 114.027 36.0635 114.238 37.4065ZM175.861 36.7745C175.354 38.5915 175.311 48.269 175.776 50.323C176.368 52.93 177.763 54.668 179.031 54.2335C180.214 53.8385 182.116 52.1005 183.426 50.165C184.948 47.953 185.032 48.427 183.553 50.7575C182.201 52.93 179.834 54.905 178.608 54.905C175.945 54.905 174.381 51.0735 174.339 44.635C174.339 39.5 174.804 35.8265 175.48 36.0635C175.776 36.182 175.903 36.498 175.861 36.7745ZM182.961 49.5725C182.961 50.2045 180.975 52.4955 180.552 52.3375C180.256 52.2585 179.918 52.377 179.749 52.614C179.538 52.8905 179.665 52.93 180.045 52.7325C180.552 52.456 180.552 52.4955 180.087 53.009C179.453 53.7595 178.016 53.5225 177.467 52.535C177.129 51.982 177.298 51.666 178.101 51.192C178.693 50.8365 179.115 50.402 179.115 50.244C179.073 50.086 179.073 49.849 179.115 49.6515C179.157 49.3355 182.961 49.2565 182.961 49.5725ZM136.47 51.9425C137.991 52.2585 140.485 52.614 142.091 52.7325L144.923 53.009V55.3395C144.923 56.643 145.092 57.67 145.345 57.67C145.599 57.67 145.768 56.6035 145.768 55.3C145.768 53.088 145.852 52.93 146.825 52.693C147.416 52.535 148.05 52.535 148.177 52.693C148.304 52.8115 148.557 55.7345 148.684 59.1315L148.938 65.3725L149.741 58.9735C150.459 53.1275 150.586 52.5745 151.431 52.377C153.925 51.745 153.798 51.35 153.798 60.7905V69.4015L148.431 69.678C141.964 69.994 133.511 69.283 133.511 68.414C133.342 63.279 133.342 51.35 133.511 51.35C133.638 51.35 134.948 51.6265 136.47 51.9425Z" fill="#11120D"/>
<path d="M96.529 9.04552C94.5425 9.83552 93.2323 12.245 92.2602 16.8665C91.4572 20.777 91.4572 21.567 92.3025 20.935C92.6406 20.6585 93.3591 20.54 93.9086 20.698C94.8384 20.8955 94.9229 20.7375 95.5569 17.5775C96.4445 13.193 97.7124 10.7835 99.5721 9.95402C100.798 9.40102 100.882 9.28253 100.248 9.04552C99.234 8.65053 97.5856 8.65053 96.529 9.04552Z" fill="#11120D"/>
<path d="M89.0481 14.22C87.9069 15.0495 86.808 17.4985 86.3431 20.3425C86.0895 21.9225 86.0895 21.9225 87.5265 21.9225C88.879 21.9225 88.9213 22.0015 89.0058 23.5025C89.513 31.205 90.7809 38.1175 92.8097 44.3585C94.0354 48.19 93.9086 48.7035 91.7108 48.7035H90.4006L91.7953 51.0735C93.5282 54.0755 96.529 57.2355 98.3041 57.907C99.6989 58.46 101.432 58.1835 102.023 57.275C102.15 57.0775 101.263 55.774 99.9525 54.4705C97.2053 51.6265 94.6693 46.926 93.4014 42.4625C90.5274 32.1135 89.7666 24.253 91.0345 18.565C91.4572 16.7085 91.7953 14.852 91.8376 14.4175C91.8798 13.3115 90.4006 13.193 89.0481 14.22Z" fill="#11120D"/>
<path d="M82.2434 19.4735C81.3981 20.0265 80.0878 23.7 80.6796 23.7C80.9331 23.7 81.1022 23.542 81.1022 23.3445C81.1022 22.8705 82.2434 22.4755 82.9619 22.752C83.3845 22.91 83.5959 24.411 83.7649 29.151C84.0185 35.866 85.1597 41.554 87.1884 46.2545C88.3718 48.98 88.1182 49.9675 86.3008 49.6515C85.1597 49.454 85.1597 49.454 86.005 51.034C86.9771 52.8115 90.4005 56.09 91.2459 56.09C91.6262 56.09 92.2602 55.774 92.6406 55.379C93.2323 54.747 93.1901 54.5495 91.8376 52.535C86.5122 44.7535 83.7649 32.311 85.0329 21.804L85.371 18.96H84.1876C83.5113 18.96 82.6238 19.197 82.2434 19.4735Z" fill="#11120D"/>
<path d="M99.1495 47.084C98.6423 47.5975 98.0928 47.716 97.332 47.558L96.2332 47.2815L97.0785 48.822C98.3041 51.113 101.643 55.1025 103.418 56.485C105.278 57.907 107.391 58.618 108.828 58.302C110.223 57.9465 110.096 57.512 108.363 56.959C106.419 56.2875 103.968 53.562 101.728 49.612C99.9948 46.4915 99.868 46.4125 99.1495 47.084Z" fill="#11120D"/>
<path d="M188.794 9.00599C188.16 9.24299 188.244 9.36149 189.301 9.79599C191.203 10.586 192.64 13.272 193.443 17.38C194.077 20.777 194.162 20.8955 195.091 20.698C195.641 20.54 196.359 20.698 196.74 20.9745C197.374 21.4485 197.416 21.2905 197.12 18.96C196.698 15.326 195.345 11.613 194.035 10.2305C192.851 9.00599 190.315 8.37399 188.794 9.00599Z" fill="#11120D"/>
<path d="M197.416 13.746C196.951 14.0225 196.993 14.536 197.627 16.432C198.219 18.249 198.388 20.1055 198.388 24.885C198.388 30.099 198.219 31.7975 197.162 36.3005C194.88 46.452 192.936 50.5995 188.202 55.4185C186.638 56.9985 186.638 57.512 188.287 58.065C190.485 58.855 193.57 56.6035 196.74 51.903C197.754 50.323 198.599 48.98 198.599 48.901C198.599 48.7825 198.008 48.7035 197.331 48.7035C195.091 48.7035 194.965 48.19 196.19 44.3585C197.965 38.9075 199.402 31.7185 199.783 26.623L200.079 21.9225H201.473C202.995 21.9225 203.037 21.8435 202.361 18.881C201.938 16.985 201.347 15.642 200.417 14.3385C199.952 13.7065 198.092 13.351 197.416 13.746Z" fill="#11120D"/>
<path d="M203.967 21.804C205.235 32.4295 202.234 45.8595 196.951 52.93L195.641 54.7075L196.528 55.4185C197.036 55.774 197.67 56.09 197.965 56.09C198.98 56.09 203.671 50.797 203.671 49.612C203.671 49.533 203.291 49.533 202.826 49.6515C202.361 49.77 201.685 49.6515 201.389 49.4145C200.839 48.98 200.924 48.5455 201.812 46.3335C204.094 40.685 205.024 36.1425 205.235 29.3485C205.489 22.436 205.7 21.883 207.686 23.068C208.616 23.6605 208.659 23.621 208.32 22.3965C207.686 19.7895 206.841 18.96 204.686 18.96H203.629L203.967 21.804Z" fill="#11120D"/>
<path d="M188.287 47.8345C186.512 51.982 181.82 57.275 179.918 57.275C179.496 57.275 179.157 57.433 179.157 57.67C179.157 58.1835 181.059 58.5785 182.243 58.302C184.821 57.7095 189.132 53.562 191.668 49.2565L192.809 47.2815L191.71 47.558C190.907 47.716 190.358 47.5975 189.766 47.0445C188.963 46.294 188.921 46.294 188.287 47.8345Z" fill="#11120D"/>
</svg>
